<svg version="1.1" id="Layer_1" xmlns="http://www.w3.org/2000/svg" xmlns:xlink="http://www.w3.org/1999/xlink" x="0px" y="0px"
	 width="100%" viewBox="0 0 200 200" enable-background="new 0 0 200 200" xml:space="preserve">
<path fill="#010101" opacity="1.000000" stroke="none" 
	d="
M130.000000,201.000000 
	C86.666672,201.000000 43.833340,201.000000 1.000006,201.000000 
	C1.000004,134.333344 1.000004,67.666679 1.000002,1.000015 
	C67.666656,1.000010 134.333313,1.000010 200.999969,1.000005 
	C200.999985,67.666649 200.999985,134.333298 201.000000,200.999969 
	C177.500000,201.000000 154.000000,201.000000 130.000000,201.000000 
M136.483871,151.035080 
	C123.321945,151.034088 110.160019,151.027603 96.998093,151.033768 
	C85.350723,151.039215 85.347939,151.044952 83.427269,162.742188 
	C83.384605,163.002014 83.610085,163.305847 83.812614,163.877365 
	C104.705292,163.877365 125.685081,163.908920 146.664703,163.863617 
	C156.666931,163.842026 162.142654,158.644272 162.178635,148.640335 
	C162.288284,118.151268 162.257187,87.661285 162.148926,57.172131 
	C162.120529,49.172974 156.852219,43.525578 148.807953,43.195972 
	C139.674347,42.821732 130.513596,43.109547 122.239586,43.109547 
	C119.438606,50.728699 117.943497,58.546577 113.958710,64.770470 
	C107.721146,74.513008 100.240204,83.573158 92.485321,92.202896 
	C81.850769,104.037148 74.594887,116.795517 75.963577,133.361191 
	C76.437973,139.102905 76.039101,144.916763 76.039101,151.040176 
	C69.294678,151.040176 62.992546,150.839905 56.711433,151.116608 
	C53.047554,151.278015 52.222443,149.821075 52.235207,146.474899 
	C52.343258,118.151077 52.382179,89.826447 52.254807,61.502892 
	C52.236732,57.483444 53.247524,55.905190 57.544483,56.023930 
	C67.865799,56.309147 78.200119,56.125080 88.529190,56.127914 
	C96.264671,56.130035 104.000160,56.128334 112.137756,56.128334 
	C112.961723,52.192848 113.870697,47.851353 114.861618,43.118462 
	C93.871117,43.118462 73.226799,42.905670 52.591099,43.234215 
	C45.396702,43.348759 39.146599,50.148945 39.118755,57.186890 
	C38.996822,88.010414 38.958996,118.835381 39.145283,149.658279 
	C39.194012,157.720947 44.537407,163.436569 51.872654,163.713608 
	C60.174850,164.027191 68.497993,163.785965 75.422752,163.785965 
	C79.186188,154.404282 81.525337,144.966095 86.453781,137.163406 
	C93.230659,126.434265 101.795471,116.801254 109.912857,106.961449 
	C117.800842,97.399734 122.924622,86.979660 122.500931,74.263168 
	C122.303703,68.343460 122.467232,62.411743 122.467232,56.135380 
	C126.662842,56.135380 130.138626,56.037281 133.606705,56.158909 
	C138.518585,56.331173 145.488159,54.833069 147.784088,57.418385 
	C150.354782,60.313087 148.820038,66.968132 148.844925,71.987999 
	C148.922653,87.662125 148.896301,103.336784 148.904404,119.011238 
	C148.909882,129.599884 148.905441,140.188522 148.905441,151.033707 
	C144.451492,151.033707 140.964600,151.033707 136.483871,151.035080 
z"/>
<path fill="#FAFAFA" opacity="1.000000" stroke="none" 
	d="
M136.980789,151.034393 
	C140.964600,151.033707 144.451492,151.033707 148.905441,151.033707 
	C148.905441,140.188522 148.909882,129.599884 148.904404,119.011238 
	C148.896301,103.336784 148.922653,87.662125 148.844925,71.987999 
	C148.820038,66.968132 150.354782,60.313087 147.784088,57.418385 
	C145.488159,54.833069 138.518585,56.331173 133.606705,56.158909 
	C130.138626,56.037281 126.662842,56.135380 122.467232,56.135380 
	C122.467232,62.411743 122.303703,68.343460 122.500931,74.263168 
	C122.924622,86.979660 117.800842,97.399734 109.912857,106.961449 
	C101.795471,116.801254 93.230659,126.434265 86.453781,137.163406 
	C81.525337,144.966095 79.186188,154.404282 75.422752,163.785965 
	C68.497993,163.785965 60.174850,164.027191 51.872654,163.713608 
	C44.537407,163.436569 39.194012,157.720947 39.145283,149.658279 
	C38.958996,118.835381 38.996822,88.010414 39.118755,57.186890 
	C39.146599,50.148945 45.396702,43.348759 52.591099,43.234215 
	C73.226799,42.905670 93.871117,43.118462 114.861618,43.118462 
	C113.870697,47.851353 112.961723,52.192848 112.137756,56.128334 
	C104.000160,56.128334 96.264671,56.130035 88.529190,56.127914 
	C78.200119,56.125080 67.865799,56.309147 57.544483,56.023930 
	C53.247524,55.905190 52.236732,57.483444 52.254807,61.502892 
	C52.382179,89.826447 52.343258,118.151077 52.235207,146.474899 
	C52.222443,149.821075 53.047554,151.278015 56.711433,151.116608 
	C62.992546,150.839905 69.294678,151.040176 76.039101,151.040176 
	C76.039101,144.916763 76.437973,139.102905 75.963577,133.361191 
	C74.594887,116.795517 81.850769,104.037148 92.485321,92.202896 
	C100.240204,83.573158 107.721146,74.513008 113.958710,64.770470 
	C117.943497,58.546577 119.438606,50.728699 122.239586,43.109547 
	C130.513596,43.109547 139.674347,42.821732 148.807953,43.195972 
	C156.852219,43.525578 162.120529,49.172974 162.148926,57.172131 
	C162.257187,87.661285 162.288284,118.151268 162.178635,148.640335 
	C162.142654,158.644272 156.666931,163.842026 146.664703,163.863617 
	C125.685081,163.908920 104.705292,163.877365 83.812614,163.877365 
	C83.610085,163.305847 83.384605,163.002014 83.427269,162.742188 
	C85.347939,151.044952 85.350723,151.039215 96.998093,151.033768 
	C110.160019,151.027603 123.321945,151.034088 136.980789,151.034393 
z"/>
</svg>